<mxfile host="65bd71144e">
    <diagram id="oIYV_vNDLf8hRH8rvUzH" name="Page-1">
        <mxGraphModel dx="554" dy="520" grid="1" gridSize="10" guides="1" tooltips="1" connect="1" arrows="1" fold="1" page="1" pageScale="1" pageWidth="850" pageHeight="1100" math="0" shadow="0">
            <root>
                <mxCell id="0"/>
                <mxCell id="1" parent="0"/>
                <mxCell id="3" value="" style="rounded=1;whiteSpace=wrap;html=1;" vertex="1" parent="1">
                    <mxGeometry x="60" y="60" width="450" height="400" as="geometry"/>
                </mxCell>
                <mxCell id="9" value="Sign In Page" style="swimlane;whiteSpace=wrap;html=1;" vertex="1" parent="1">
                    <mxGeometry x="170" y="130" width="220" height="250" as="geometry"/>
                </mxCell>
                <mxCell id="12" value="log in" style="rounded=1;whiteSpace=wrap;html=1;" vertex="1" parent="9">
                    <mxGeometry x="85" y="160" width="50" height="20" as="geometry"/>
                </mxCell>
                <mxCell id="13" value="toggle sign in/sign up" style="rounded=0;whiteSpace=wrap;html=1;" vertex="1" parent="9">
                    <mxGeometry x="75" y="190" width="70" height="30" as="geometry"/>
                </mxCell>
                <mxCell id="10" value="username" style="rounded=0;whiteSpace=wrap;html=1;" vertex="1" parent="1">
                    <mxGeometry x="225" y="230" width="110" height="20" as="geometry"/>
                </mxCell>
                <mxCell id="11" value="password" style="rounded=0;whiteSpace=wrap;html=1;" vertex="1" parent="1">
                    <mxGeometry x="225" y="260" width="110" height="20" as="geometry"/>
                </mxCell>
                <mxCell id="15" value="NAVBAR" style="rounded=0;whiteSpace=wrap;html=1;" vertex="1" parent="1">
                    <mxGeometry x="115" y="70" width="330" height="20" as="geometry"/>
                </mxCell>
            </root>
        </mxGraphModel>
    </diagram>
</mxfile>